<svg width="510" height="488" viewBox="0 0 510 488" fill="none" xmlns="http://www.w3.org/2000/svg">
<g opacity="0.85" clip-path="url(#clip0_86_465)">
<path d="M178.563 262.38C177.69 250.075 177.084 221.826 176.39 207.181C168.863 107.373 92.8196 86.131 47.0557 182.842C13.3055 253.114 -7.71152 350.186 2.66224 419.617C7.39553 448.864 11.9963 487.057 41.7877 488.368C63.4619 488.072 85.8206 460.079 108.337 454.747C139.938 444.876 175.638 433.752 182.66 391.265C192.232 348.108 177.561 305.003 178.563 262.38ZM55.9171 434.171C43.5115 436.144 45.4861 417.509 43.4602 409.833C41.442 391.16 41.274 372.334 42.9586 353.628C43.1581 351.419 44.2238 349.378 45.9229 347.952C47.622 346.527 49.8161 345.832 52.0258 346.02C54.2355 346.208 56.281 347.263 57.7151 348.955C59.1492 350.647 59.8554 352.839 59.6793 355.05C58.0655 372.527 58.1775 390.12 60.0137 407.574C60.4647 416.723 67.7997 431.772 55.9171 434.171ZM432.048 208.434C380.386 73.8902 298.576 107.83 291.511 207.179C290.855 217.83 291.122 233.632 290.173 244.649L289.337 261.795C290.618 305.983 274.666 350.771 286.244 395.447C295.058 434.857 329.785 445.451 360.316 454.913C385.594 460.865 409.249 496.118 435.642 486.529C456.461 478.247 461.393 445.629 465.323 419.451C473.956 356.915 461.085 281.405 432.048 208.434ZM407.218 295.584C405.069 296.115 402.797 295.781 400.89 294.655C398.984 293.53 397.594 291.701 397.019 289.562C390.05 261.672 380.449 234.507 368.343 208.434C367.413 206.425 367.312 204.13 368.064 202.047C368.815 199.965 370.357 198.263 372.356 197.311C373.348 196.837 374.425 196.565 375.523 196.511C376.621 196.456 377.719 196.621 378.754 196.994C379.788 197.367 380.738 197.943 381.548 198.686C382.359 199.43 383.014 200.327 383.475 201.325C396.017 228.345 405.982 256.488 413.238 285.381C413.788 287.532 413.463 289.814 412.335 291.726C411.207 293.639 409.367 295.026 407.218 295.584ZM259.073 145.372C259.096 162.769 265.154 179.619 276.212 193.045C275.543 197.311 275.125 201.743 274.791 206.259C274.276 216.138 274.3 232.913 273.453 243.813L272.952 254.602C257.708 246.135 244.43 234.534 233.992 220.562C223.53 234.586 210.226 246.243 194.95 254.769C194.685 246.492 193.968 235.404 193.612 226.751C193.91 215.534 193.238 204.313 191.605 193.212C202.763 179.766 208.883 162.848 208.911 145.372V28.3637C208.918 26.1476 209.801 24.0241 211.367 22.457C212.934 20.8899 215.056 20.0066 217.272 20H250.713C252.928 20.0066 255.051 20.8899 256.617 22.457C258.184 24.0241 259.067 26.1476 259.073 28.3637V145.372Z" fill="url(#paint0_linear_86_465)"/>
</g>
<defs>
<linearGradient id="paint0_linear_86_465" x1="329.959" y1="448.402" x2="158.229" y2="-293.937" gradientUnits="userSpaceOnUse">
<stop stop-color="#C9EF9A"/>
<stop offset="0.169186" stop-color="#99DB82"/>
<stop offset="0.275096" stop-color="#67C66B"/>
<stop offset="0.48352" stop-color="#44AC5E"/>
<stop offset="0.670111" stop-color="#3C9F61"/>
<stop offset="0.773853" stop-color="#459C65"/>
<stop offset="0.914936" stop-color="#7AAB6F"/>
<stop offset="1" stop-color="#DCCB83"/>
</linearGradient>
<clipPath id="clip0_86_465">
<rect width="510" height="488" fill="white"/>
</clipPath>
</defs>
</svg>
