<svg width="20" height="20" viewBox="0 0 20 20" fill="none" xmlns="http://www.w3.org/2000/svg">
<path d="M19.5868 17.5781H19.3112V16.8637V4.87277V3.38871C19.3112 2.41832 18.5217 1.62887 17.5513 1.62887H17.095C16.9636 1.08555 16.4736 0.680664 15.8904 0.680664H3.92348C3.34035 0.680664 2.85031 1.08555 2.71891 1.62887H2.44867C1.47828 1.62887 0.688828 2.41832 0.688828 3.38871V4.87281V16.8637V17.5781H0.413203C0.185352 17.5781 0 17.7634 0 17.9913V18.906C0 19.1339 0.185352 19.3193 0.413203 19.3193H19.5868C19.8146 19.3193 20 19.1339 20 18.906V17.9913C20 17.7634 19.8146 17.5781 19.5868 17.5781ZM1.27137 3.38871C1.27137 2.73953 1.79949 2.21141 2.44867 2.21141H4.29125C4.45211 2.21141 4.5825 2.08102 4.5825 1.92016C4.5825 1.7593 4.45211 1.62891 4.29125 1.62891H3.33551C3.44313 1.41258 3.6659 1.2632 3.92348 1.2632H15.8904C16.148 1.2632 16.3708 1.41258 16.4784 1.62891H5.56809C5.40723 1.62891 5.27684 1.7593 5.27684 1.92016C5.27684 2.08102 5.40723 2.21141 5.56809 2.21141H17.5513C18.2005 2.21141 18.7286 2.73953 18.7286 3.38871V3.48324H1.27137V3.38871ZM1.27137 5.16406H3.26867C3.67195 5.16406 4.00004 5.49215 4.00004 5.89543V15.8411C4.00004 16.2443 3.67195 16.5724 3.26867 16.5724H1.27137V5.16406ZM0.582539 18.7367V18.1606H2.03887C2.19973 18.1606 2.33012 18.0302 2.33012 17.8693C2.33012 17.7085 2.19973 17.5781 2.03887 17.5781H1.27137V17.155H3.26867C3.99316 17.155 4.58254 16.5655 4.58254 15.8411V5.89543C4.58254 5.17094 3.99312 4.58152 3.26867 4.58152H1.27137V4.06574H9.70875V7.05297C9.70875 7.21383 9.83914 7.34422 10 7.34422C10.1609 7.34422 10.2913 7.21383 10.2913 7.05297V4.06574H18.7286V4.58152H16.7313C16.0068 4.58152 15.4175 5.17094 15.4175 5.89543V15.8411C15.4175 16.5655 16.0069 17.155 16.7313 17.155H18.7286V17.5781H10.2913V8.23402C10.2913 8.07316 10.1609 7.94277 10 7.94277C9.83914 7.94277 9.70875 8.07316 9.70875 8.23402V17.5781H3.29449C3.13363 17.5781 3.00324 17.7085 3.00324 17.8693C3.00324 18.0302 3.13363 18.1606 3.29449 18.1606H19.4175V18.7368L0.582539 18.7367ZM18.7286 5.16406V16.5725H16.7313C16.328 16.5725 16 16.2444 16 15.8411V5.89543C16 5.49215 16.328 5.16406 16.7313 5.16406H18.7286Z" fill="#78C081"/>
</svg>
